<svg xmlns="http://www.w3.org/2000/svg" version="1.1" xmlns:xlink="http://www.w3.org/1999/xlink" xmlns:svgjs="http://svgjs.com/svgjs" width="512" height="512" x="0" y="0" viewBox="0 0 152 152" style="enable-background:new 0 0 512 512" xml:space="preserve" class=""><g><linearGradient xmlns="http://www.w3.org/2000/svg" id="Icon_1_" gradientTransform="matrix(1 0 0 -1 0 154)" gradientUnits="userSpaceOnUse" x1="49.252" x2="118.558" y1="114.48" y2="45.175"><stop offset="0" stop-color="#42a5f5"></stop><stop offset="1" stop-color="#1565c0"></stop></linearGradient><path xmlns="http://www.w3.org/2000/svg" id="Icon" d="m60.4 84.5h-16.1c-2.6 0-3.4-1-3.4-3.4 0-6.5 0-13.2 0-19.7 0-2.6 1-3.6 3.4-3.6h16.1v-14.3c-.2-6.3 1.3-12.7 4.4-18.4 3.3-5.7 8.5-9.9 14.5-12 4.1-1.5 8.1-2.1 12.4-2.1h15.9c2.3 0 3.3 1 3.3 3.3v18.5c0 2.3-1 3.3-3.3 3.3-4.4 0-8.8 0-13.2.2s-6.7 2.1-6.7 6.7c-.2 4.9 0 9.6 0 14.6h18.7c2.6 0 3.6 1 3.6 3.6v19.7c0 2.6-.8 3.6-3.6 3.6h-18.5v52.9c0 2.8-1 3.7-3.7 3.7h-20.3c-2.4 0-3.4-1-3.4-3.4v-53.2z" fill="url(#Icon_1_)" data-original="url(#Icon_1_)"></path></g></svg>