<svg xmlns="http://www.w3.org/2000/svg" version="1.1" xmlns:xlink="http://www.w3.org/1999/xlink" xmlns:svgjs="http://svgjs.com/svgjs" width="512" height="512" x="0" y="0" viewBox="0 0 52 52" style="enable-background:new 0 0 512 512" xml:space="preserve" class=""><g><g xmlns="http://www.w3.org/2000/svg" id="_x36_5"><g><g><g><g><path d="m30.0855446 22.3658257-6.2900391 13.5700073-17.47998-2.6900025 1.5999756-8.5800171c.039917-.2200317.1099858-.4199829.190064-.6099854.4499512-1.0100098 1.5100098-1.6900024 2.6999512-1.6900024h19.2800283z" fill="#7979f7" data-original="#7979f7" class=""></path></g></g></g><g><g><g><path d="m30.0855446 22.3658257-6.2900391 13.5700073-17.47998-2.6900025.4199219-2.2400513 13.3126068 2.0520515c1.3370609.2061005 2.649271-.4968643 3.2184505-1.7241573l4.1590061-8.9678478h2.6600338z" fill="#5e5eef" data-original="#5e5eef"></path></g></g></g><g><g><g><path d="m45.2968597 49.9696808h-14.927824l-5.7357769-12.5734406.5744991-1.241642c.1511726-.3264961 6.3342571-13.6805534 6.3843651-13.7887726h9.5998173c1.4269753 0 2.6501198.9705372 2.8910484 2.2995968l1.6400795 8.7611485c.0186653.1009712.5529938 2.9911308.5189018 2.8067436l1.9552116 10.4836845c.3150178 1.6962777-1.0749091 3.2526818-2.9003219 3.2526818z" fill="#00d67f" data-original="#00d67f"></path></g></g></g><g><g><g><path d="m45.2955055 49.9658012h-14.9299316l-1.1401367-2.4899902h13.5800781c1.8299561 0 3.2199707-1.5499878 2.8999023-3.25l-1.5699463-8.460022c-.0190277-.1009064-.5646553-2.9942627-.5299072-2.8099976-2.5513573-13.6800327.8771782 4.6561737-1.9700928-10.5599976 1.2301025.1799927 2.2401123 1.0800171 2.4500732 2.2700195l1.6398926 8.7600098c.0186882.1009712.554142 2.994381.5200195 2.8099976l1.9500732 10.4799805c.3199464 1.7000122-1.0699462 3.25-2.9000243 3.25z" fill="#00c179" data-original="#00c179"></path></g></g></g><g><g><g><path d="m30.3690357 49.9696808h-23.665894c-1.8254132 0-3.215342-1.5564041-2.9003232-3.2526817l2.0292985-10.8859138.2409301-1.2940483 18.5602112 2.8592033z" fill="#f9b938" data-original="#f9b938"></path></g></g></g><g><g><g><path d="m30.3655739 49.9658012h-23.6601558c-1.5599365 0-2.8099363-1.1300049-2.9299314-2.5200195.1400146.0200195.2900388.0300293.4399412.0300293h23.6601563l-4.7000732-10.2999878 1.4599609.2199707z" fill="#ecb021" data-original="#ecb021"></path></g></g></g><g><g><g><g><path d="m26.327158 37.7730331 5.5484257 12.1927681h-3.0300293l-4.9875355-10.945549c-.1263847-.2773666-.3840237-.472374-.6852856-.5186958l-17.3371887-2.66576.2399902-1.2999878.2399902-1.289978 16.8081169 2.5866089c.3979397.0612411.7884178-.148056.9577389-.5133438l6.0041637-12.95327h3.0300293l-2.9979153 6.4708233c-.2426205.5236816.0609226 1.1375237.6243572 1.2626152l14.9834213 3.3265591c.0183372.1010361.5431519 2.992588.5100098 2.8099976l-17.0082493-3.7913589c-.4153481-.0925865-.839035.1170158-1.017458.5033455l-1.8804722 4.0717163c-.1103304.2388914-.1111009.5139998-.0021093.7535093z" fill="#e4e3ff" data-original="#e4e3ff"></path></g></g></g></g><g><g><g><g><path d="m30.7263641 47.4687881 1.1492195 2.4899903h-3.0300292l-1.1401368-2.4899903z" fill="#d0d0f7" data-original="#d0d0f7"></path></g></g></g><g><g><g><path d="m46.2354469 36.2358208-2.0999756-.4700317c-.0190277-.1009064-.5646553-2.9942627-.5299072-2.8099976l2.119873.4700317c.0183373.1010361.5431519 2.9925881.5100098 2.8099976z" fill="#d0d0f7" data-original="#d0d0f7"></path></g></g></g></g><g><g><g><path d="m27.8112221 12.770916c0 5.1261959-5.7955894 13.3233509-8.8743839 17.3156414-.9450722 1.2283936-2.7875423 1.2283936-3.7326155 0-3.0787935-3.9922905-8.8743839-12.1894455-8.8743839-17.3156414 0-5.9293447 4.8112998-10.7405958 10.7406921-10.7405958s10.7406912 4.8112511 10.7406912 10.7405958z" fill="#fc6559" data-original="#fc6559"></path></g></g></g><g opacity=".3"><g><g><g><path d="m10.818944 6.7075009c-.1875 0-.375-.0751953-.5131836-.2241211-.2626953-.2832031-.246582-.7260742.0371094-.9892578 1.9384766-1.7998049 4.4604492-2.7915041 7.1000967-2.7915041.3867188 0 .7001953.3134766.7001953.7001953s-.3134766.7001956-.7001953.7001956c-2.2851553 0-4.468749.8583984-6.1479483 2.4174805-.1347656.1249999-.3056641.1870116-.4760742.1870116z" fill="#ffffff" data-original="#ffffff"></path></g></g></g></g><g opacity=".3"><g><g><g><path d="m9.0088854 8.9731255c-.1191406 0-.2397461-.0302734-.3505859-.0942383-.3344727-.1938477-.4482422-.6220703-.2543946-.9570308.1962891-.3388672.4160156-.6723633.6523438-.9912109.2299805-.3105469.6689453-.375.9794922-.1445313.3100586.2304688.375.6689453.1445313.9794922-.2041017.2744136-.3930665.5610347-.5654298.858398-.1293945.2236328-.3647461.3491211-.605957.3491211z" fill="#ffffff" data-original="#ffffff"></path></g></g></g></g><g><g><g><path d="m27.8071632 12.7711172c0 5.1252432-5.7904396 13.3204908-8.8690834 17.3115158-.946476 1.2365494-2.7886238 1.2365494-3.7350979 0-.1790514-.2302151-.366847-.4690208-.5544348-.7248459.9637547.4349289 2.1575708.2046604 2.8569117-.7078247 3.0786438-3.9910259 8.8688774-12.1862736 8.8688774-17.3115177 0-2.609519-.9294033-4.9973059-2.4729919-6.85637 2.3878384 1.9699316 3.9058189 4.9546776 3.9058189 8.2890425z" fill="#f05543" data-original="#f05543"></path></g></g></g><g><g><g><g><circle cx="17.071" cy="12.801" fill="#ffffff" r="7.578" data-original="#ffffff"></circle></g></g></g></g><g><g><g><g><path d="m22.9155006 7.9858212c-1.289917-1.0400391-2.9400635-1.6700439-4.75-1.6700439-4.1900625 0-7.5799551 3.3900142-7.5799551 7.5800166 0 1.7999878.6298828 3.4500122 1.6699219 4.75-1.6899414-1.3900146-2.7600098-3.4899902-2.7600098-5.8399658 0-4.1900024 3.3900146-7.5800166 7.5800772-7.5800166 2.3499756 0 4.4499512 1.0700073 5.8399658 2.7600097z" fill="#e4e3ff" data-original="#e4e3ff"></path></g></g></g></g><g opacity=".3"><g><g><g><path d="m7.2180033 39.7115326-.0086007-.0016632c-.3367496-.0563011-.5516114-.3741074-.4954152-.7108765l.1661401-.8592186c.0562286-.3366547.3740964-.5515594.7022657-.4970245 0 0 0 0 .0085483.0016518.3351068.0647964.5499487.3827095.4937725.7193718l-.1661401.8592186c-.0545536.3282737-.3724013.5430717-.7005706.4885406z" fill="#ffffff" data-original="#ffffff"></path></g></g></g><g><g><g><path d="m6.0121307 45.9940109c-.3351068-.0647964-.5483055-.3912048-.4851718-.7177124l.8971601-4.6397858c.0631342-.3265076.3724017-.5430756.7005711-.4885406.0086002.0016632.0086002.0016632.0172009.0033264.3351068.0647964.5482855.3913078.4851513.7178154l-.8971596 4.6397858c-.0631342.3265076-.4067836.5363159-.717752.4851112z" fill="#ffffff" data-original="#ffffff"></path></g></g></g></g><g opacity=".3"><g><g><g><path d="m9.4520111 25.8402653-.0086002-.0016632c-.33675-.0563011-.5516119-.3741055-.4954157-.7108765l.0786142-.352684c.0562286-.3366547.3740969-.5515594.7022657-.4970245 0 0 0 0 .0085487.0016518.3351068.0647984.5499487.3827076.4937725.7193737l-.0786142.3526821c-.0545539.3282756-.3724021.5430755-.700571.4885406z" fill="#ffffff" data-original="#ffffff"></path></g></g></g><g><g><g><path d="m8.5211897 30.5200939c-.3351068-.0647984-.5483055-.3912029-.4851713-.7177105l.6221085-3.0371361c.0631342-.3265076.3724012-.5430737.7005711-.4885406.0086002.0016632.0086002.0016632.0172014.0033264.3351068.0647964.5482855.3913078.4851513.7178135l-.6221094 3.037138c-.0631333.3265056-.4067832.5363159-.7177516.4851093z" fill="#ffffff" data-original="#ffffff"></path></g></g></g></g></g><g><g><g><g><path d="m20.8795261 12.799757v4.6439743h-7.6243248v-4.7634678l3.7524147-3.7547149z" fill="#e4e3ff" data-original="#e4e3ff"></path></g></g></g><g><g><g><path d="m20.8818207 12.3809328v4.6439734h-7.6243248v-4.7634669l3.7524166-3.7547149z" fill="#8666c6" data-original="#8666c6"></path></g></g></g><g><g><g><path d="m20.8818111 12.3815441v.8111391l-3.8718948-3.8741951-3.7524147 3.754715v-.8111525l3.7524147-3.7547016z" fill="#7553aa" data-original="#7553aa"></path></g></g></g><g><g><g><g><g><path d="m21.7960243 12.743474c-.1068764.1121893-.2511158.1655941-.3952885.1655941-.1442394 0-.2884789-.0534048-.3952904-.1655941l-.5555687-.55019-3.4348145-3.4401283-2.3236094 2.3290224-1.5545502 1.5544853c-.2243147.2136526-.5768929.2136526-.7959251 0-.2189674-.2190323-.2189674-.5769253 0-.7959576l1.009676-1.014924 1.3407993-1.335453 1.2178841-1.2179489.7050905-.7104378c.1068745-.106843.2511139-.1655951.4006348-.1655951.1495876 0 .2938271.0587521.3952904.1655951l.7051544.7050905 3.6805172 3.6805162c.2243787.2190324.2243787.5769244.0000001.7959252z" fill="#f9b938" data-original="#f9b938"></path></g></g></g></g></g><g opacity=".2"><g><g><g><g><path d="m14.3018246 10.6261387c-.0540009-.0540009-.0540009-.1413946 0-.1953955l.1831837-.1831827c.0540009-.0540009.1413946-.0540009.1953955 0s.0540009.1413946 0 .1953955l-.1831838.1831827c-.0540008.0540008-.1413936.0540008-.1953954 0z" fill="#ffffff" data-original="#ffffff"></path></g></g></g></g><g><g><g><g><path d="m14.7531996 10.1747637c-.0540009-.0540009-.0540009-.1413946 0-.1953955l1.1960344-1.1960335c.0540009-.0540009.1413937-.0540009.1953945 0s.0540009.1413946 0 .1953955l-1.1960335 1.1960335c-.0540008.0540008-.1413946.0540008-.1953954 0z" fill="#ffffff" data-original="#ffffff"></path></g></g></g></g></g><g><g><g><g><path d="m18.4204788 14.4506979v2.086627h-2.7016401v-2.086627c0-.74718.6059198-1.3530989 1.3531008-1.3530989.3690567 0 .706192.1503258.9522305.3963642.2459811.2460099.3963088.5831452.3963088.9567347z" fill="#e4e3ff" data-original="#e4e3ff"></path></g></g></g><g><g><g><path d="m18.1471329 13.6397285c-.2277966-.1731005-.505703-.273345-.810915-.273345-.7426758 0-1.3485947.6059475-1.3485947 1.3531275v1.8178139h-.2687845v-2.086627c0-.74718.6059198-1.3530989 1.3531008-1.3530989.3690567 0 .706192.1503258.9522305.3963642.0454921.0455475.0865344.0956564.1229629.1457653z" fill="#d0d0f7" data-original="#d0d0f7"></path></g></g></g></g><g><g><g><g><path d="m17.9466705 11.5895567c0 .4874887-.3918037.8793201-.8747597.8793201-.4874611 0-.8792648-.3918314-.8792648-.8793201 0-.4829283.3918037-.874732.8792648-.874732.482956 0 .8747597.3918037.8747597.874732z" fill="#e4e3ff" data-original="#e4e3ff"></path></g></g></g><g><g><g><path d="m17.7963448 11.0975361c-.1366997-.0911245-.3052673-.1457939-.4875164-.1457939-.4874611 0-.8792648.3918047-.8792648.874732 0 .1822491.0546684.3508167.1503258.4920492-.232357-.1549139-.3872433-.4236984-.3872433-.7289667 0-.4829283.3918037-.874732.8792648-.874732.3007068 0 .5649318.1503544.7244339.3827114z" fill="#d0d0f7" data-original="#d0d0f7"></path></g></g></g></g><g><g><g><path d="m21.2949009 16.7824936v.4607887c0 .1449718-.1175232.262495-.262495.262495h-7.9323845c-.1449718 0-.262495-.1175232-.262495-.262495v-.4607887c0-.1449718.1175232-.262495.262495-.262495h7.9323845c.1449718 0 .262495.1175231.262495.262495z" fill="#f9b938" data-original="#f9b938"></path></g></g></g><g><g><g><path d="m21.2954388 16.7819443v.461874c0 .1447659-.1171932.2619591-.261961.2619591h-7.9345293c-.1447668 0-.2619457-.1171932-.2619457-.2619591v-.0942078h7.8380098c.1447659 0 .2619591-.1194935.2619591-.2642593v-.3653526h.0965061c.1447677 0 .261961.1171932.261961.2619457z" fill="#ecb021" data-original="#ecb021"></path></g></g></g></g></g></g></svg>